<svg xmlns="http://www.w3.org/2000/svg" x="0" y="0" viewBox="0 0 14 14"><path fill="#999" d="M4.041,10.879L7,7.921l2.959,2.958c0.126,0.127,0.333,0.127,0.46,0l0.459-0.459 c0.127-0.127,0.127-0.334,0-0.46L7.92,7l2.959-2.96c0.127-0.126,0.127-0.333,0-0.46L10.42,3.121 c-0.126-0.128-0.333-0.128-0.46-0.001L7,6.079L4.041,3.12c-0.127-0.127-0.333-0.127-0.46,0L3.121,3.58 c-0.126,0.127-0.126,0.333,0,0.46L6.081,7l-2.96,2.96c-0.126,0.126-0.126,0.333,0,0.46l0.459,0.459 C3.707,11.006,3.914,11.006,4.041,10.879z"/></svg>