<!DOCTYPE svg PUBLIC "-//W3C//DTD SVG 1.1//EN" "http://www.w3.org/Graphics/SVG/1.1/DTD/svg11.dtd">
<svg xmlns="http://www.w3.org/2000/svg" x="0px" y="0px" viewBox="0 0 14 14">
  <linearGradient id="a" x1="7" x2="7" y1="14" gradientUnits="userSpaceOnUse">
    <stop offset="0" stop-color="#1B48B1"/>
    <stop offset="0.1659" stop-color="#244CB2"/>
    <stop offset="0.4356" stop-color="#3C59B5"/>
    <stop offset="0.5" stop-color="#435CB6"/>
    <stop offset="0.9516" stop-color="#6A6FBC"/>
    <stop offset="1" stop-color="#6F71BD"/>
  </linearGradient>
  <path fill="url(#a)" d="M14,12c0,1.1-0.9,2-2,2H2c-1.1,0-2-0.9-2-2V2c0-1.1,0.9-2,2-2h10c1.1,0,2,0.9,2,2V12z"/>
  <linearGradient id="b" x1="7" x2="7" y1="13" y2="1" gradientUnits="userSpaceOnUse">
    <stop offset="0" stop-color="#5FDAEE"/>
    <stop offset="0.0585" stop-color="#58C3E2"/>
    <stop offset="0.2073" stop-color="#468CC5"/>
    <stop offset="0.3358" stop-color="#3A64B0"/>
    <stop offset="0.4376" stop-color="#324CA3"/>
    <stop offset="0.5" stop-color="#2F439E"/>
    <stop offset="0.5543" stop-color="#384BA3"/>
    <stop offset="0.643" stop-color="#5061B0"/>
    <stop offset="0.7548" stop-color="#7884C5"/>
    <stop offset="0.8843" stop-color="#AFB5E3"/>
    <stop offset="0.95" stop-color="#CDD0F3"/>
  </linearGradient>
  <path fill="url(#b)" d="M13,11.8c0,0.66-0.54,1.2-1.2,1.2H2.2C1.54,13,1,12.46,1,11.8V2.2C1,1.54,1.54,1,2.2,1h9.6 C12.46,1,13,1.54,13,2.2V11.8z"/>
  <g fill="none" stroke="#1B48B1" stroke-width="0.75" stroke-miterlimit="3.8637" stroke-linecap="round">
    <path d="M6.081 7l-2.96 2.96c-.056.055-.088.128-.094.202M10.879 3.58L10.42 3.121c-.063-.065-.147-.095-.23-.095-.083 0-.166.03-.229.094L7 6.079 4.041 3.12c-.059-.06-.135-.091-.213-.094C3.738 3.021 3.648 3.053 3.58 3.12L3.121 3.58C3.057 3.644 3.025 3.727 3.025 3.81"/>
    <line x1="10.879" x2="7.92" y1="9.96" y2="7"/>
  </g>
  <path fill="#FFFFFF" d="M4.041,10.879L7,7.921l2.959,2.958c0.126,0.127,0.333,0.127,0.46,0l0.459-0.459 c0.127-0.127,0.127-0.334,0-0.46L7.92,7l2.959-2.96c0.127-0.126,0.127-0.333,0-0.46L10.42,3.121 c-0.126-0.128-0.333-0.128-0.46-0.001L7,6.079L4.041,3.12c-0.127-0.127-0.333-0.127-0.46,0L3.121,3.58 c-0.126,0.127-0.126,0.333,0,0.46L6.081,7l-2.96,2.96c-0.126,0.126-0.126,0.333,0,0.46l0.459,0.459 C3.707,11.006,3.914,11.006,4.041,10.879z"/>
</svg>
