<!DOCTYPE svg PUBLIC "-//W3C//DTD SVG 1.1//EN" "http://www.w3.org/Graphics/SVG/1.1/DTD/svg11.dtd">
<svg xmlns="http://www.w3.org/2000/svg" x="0px" y="0px" viewBox="0 0 32 32">
  <path fill="#FFFFFF" fill-rule="evenodd" stroke="#000000" stroke-width="0.75" stroke-miterlimit="10" d="M20.125,23.537c0.021-0.757,0.084-1.815,0.207-2.198c0.822-2.556,1.291-2.425,2.116-4.979c0.095-0.29,0.127-0.585,0.081-0.888 c-0.073-0.459-0.292-0.814-0.727-0.97c-0.416-0.148-0.968-0.007-1.301,0.32c0,0-0.206,0.26-0.455,0.542 c0.062-0.262,0.131-0.687,0.103-1.256c-0.032-0.646-0.364-1.103-0.81-1.228c-0.676-0.187-1.315,0.097-1.593,0.794 c-0.206,0.522-0.35,0.953-0.35,0.953s-0.105-0.176-0.171-1.06c-0.046-0.602-0.497-1.068-0.925-1.149 c-0.785-0.152-1.377,0.312-1.569,1.02c-0.05,0.18-0.128,1.148-0.128,1.148s-0.276-0.609-0.406-0.89 c-0.178-0.371-0.443-0.69-0.864-0.78c-0.756-0.165-1.448,0.356-1.532,1.188c-0.048,0.467,0.09,0.891,0.272,1.298 c0.184,0.426,0.284,0.61,0.355,0.806c0.097,0.271,0.5,1.184,0.375,1.321c-0.193-0.008-0.489-0.148-0.727-0.322 c-0.47-0.35-0.819-0.816-1.426-0.651c-1.065,0.289-1.292,1.548-0.732,2.128c0.526,0.586,0.181,0.194,0.732,0.814 c0.575,0.7,1.684,1.149,2.18,1.905c0.343,0.525,0.635,1.082,0.635,2.101" clip-rule="evenodd" stroke-linecap="round" stroke-linejoin="round"/>
</svg>
