<!DOCTYPE svg PUBLIC "-//W3C//DTD SVG 1.1//EN" "http://www.w3.org/Graphics/SVG/1.1/DTD/svg11.dtd">
<svg xmlns="http://www.w3.org/2000/svg" x="0px" y="0px" viewBox="0 0 32 32">
  <path fill="#FFFFFF" fill-rule="evenodd" stroke="#000000" stroke-width="0.75" stroke-miterlimit="10" d="M20.125,23.537c0.021-0.757,0.084-1.815,0.207-2.198c0.822-2.556,2.285-4.72,3.11-7.272c0.094-0.295,0.126-0.587,0.08-0.887 c-0.073-0.461-0.292-0.819-0.726-0.972c-0.416-0.146-0.804-0.075-1.137,0.255c-0.167,0.162-0.31,0.347-0.497,0.606 c-0.185,0.259-1.116,1.795-1.116,1.795c0.062-0.389,0.665-2.592,0.741-3.009c0.099-0.549,0.239-0.596,0.211-1.165 c-0.032-0.646-0.366-1.103-0.81-1.227c-0.678-0.188-1.315,0.097-1.591,0.791c-0.208,0.524-0.262,0.584-0.39,1.126 c-0.094,0.394-0.811,2.747-0.811,2.747s-0.119-2.501-0.127-2.748c-0.03-0.889-0.061-1.276-0.126-2.161 c-0.046-0.604-0.497-1.068-0.926-1.147c-0.785-0.153-1.377,0.311-1.57,1.018c-0.05,0.183-0.065,0.371-0.065,0.562 c0.002,1.032-0.003,1.563,0.003,2.595c0.002,0.272,0.018,1.841,0.018,1.841s-0.678-1.535-0.853-1.941 c-0.305-0.703-0.459-1.037-0.792-1.729c-0.178-0.37-0.444-0.687-0.862-0.776c-0.757-0.166-1.448,0.356-1.532,1.187 c-0.047,0.468,0.09,0.892,0.273,1.299c0.622,1.562,1.234,2.999,1.601,3.979c0.102,0.271,0.451,0.951,0.25,1.178 c-0.085,0.096-0.605-0.414-0.812-0.594c-0.221-0.195-0.947-0.888-1.182-1.063c-0.471-0.348-0.616-0.494-1.222-0.33 c-1.066,0.289-1.146,1.814-0.585,2.395c0.503,0.643,1.166,1.247,1.766,1.81c0.575,0.7,1.184,1.149,1.68,1.905 c0.343,0.525,1.135,1.082,1.135,2.101" clip-rule="evenodd" stroke-linecap="round" stroke-linejoin="round"/>
</svg>
