<svg xmlns="http://www.w3.org/2000/svg" xmlns:xlink="http://www.w3.org/1999/xlink" version="1.1" width="512" height="512" enable-background="new 0 0 512 512" xml:space="preserve"><rect id="backgroundrect" width="100%" height="100%" x="0" y="0" fill="none" stroke="none"/>


<g class="currentLayer"><title>Layer 1</title><g id="Grid_1_">
	<g id="Layer_1_1_">
		<g id="Grid">
			<g id="svg_1">
				<rect fill="none" stroke="#A9CCDB" stroke-miterlimit="10" width="512" height="512" id="svg_2"/>
				<line fill="none" stroke="#A9CCDB" stroke-miterlimit="10" x1="0" y1="480" x2="512" y2="480" id="svg_3"/>
				<line fill="none" stroke="#A9CCDB" stroke-miterlimit="10" x1="0" y1="448" x2="512" y2="448" id="svg_4"/>
				<line fill="none" stroke="#A9CCDB" stroke-miterlimit="10" x1="0" y1="416" x2="512" y2="416" id="svg_5"/>
				<line fill="none" stroke="#A9CCDB" stroke-miterlimit="10" x1="0" y1="384" x2="512" y2="384" id="svg_6"/>
				<line fill="none" stroke="#A9CCDB" stroke-miterlimit="10" x1="0" y1="352" x2="512" y2="352" id="svg_7"/>
				<line fill="none" stroke="#A9CCDB" stroke-miterlimit="10" x1="0" y1="320" x2="512" y2="320" id="svg_8"/>
				<line fill="none" stroke="#A9CCDB" stroke-miterlimit="10" x1="0" y1="288" x2="512" y2="288" id="svg_9"/>
				<line fill="none" stroke="#A9CCDB" stroke-miterlimit="10" x1="0" y1="256" x2="512" y2="256" id="svg_10"/>
				<line fill="none" stroke="#A9CCDB" stroke-miterlimit="10" x1="0" y1="224" x2="512" y2="224" id="svg_11"/>
				<line fill="none" stroke="#A9CCDB" stroke-miterlimit="10" x1="0" y1="192" x2="512" y2="192" id="svg_12"/>
				<line fill="none" stroke="#A9CCDB" stroke-miterlimit="10" x1="0" y1="160" x2="512" y2="160" id="svg_13"/>
				<line fill="none" stroke="#A9CCDB" stroke-miterlimit="10" x1="0" y1="128" x2="512" y2="128" id="svg_14"/>
				<line fill="none" stroke="#A9CCDB" stroke-miterlimit="10" x1="0" y1="96" x2="512" y2="96" id="svg_15"/>
				<line fill="none" stroke="#A9CCDB" stroke-miterlimit="10" x1="0" y1="64" x2="512" y2="64" id="svg_16"/>
				<line fill="none" stroke="#A9CCDB" stroke-miterlimit="10" x1="0" y1="32" x2="512" y2="32" id="svg_17"/>
				<line fill="none" stroke="#A9CCDB" stroke-miterlimit="10" x1="480" y1="0" x2="480" y2="512" id="svg_18"/>
				<line fill="none" stroke="#A9CCDB" stroke-miterlimit="10" x1="448" y1="0" x2="448" y2="512" id="svg_19"/>
				<line fill="none" stroke="#A9CCDB" stroke-miterlimit="10" x1="416" y1="0" x2="416" y2="512" id="svg_20"/>
				<line fill="none" stroke="#A9CCDB" stroke-miterlimit="10" x1="384" y1="0" x2="384" y2="512" id="svg_21"/>
				<line fill="none" stroke="#A9CCDB" stroke-miterlimit="10" x1="352" y1="0" x2="352" y2="512" id="svg_22"/>
				<line fill="none" stroke="#A9CCDB" stroke-miterlimit="10" x1="320" y1="0" x2="320" y2="512" id="svg_23"/>
				<line fill="none" stroke="#A9CCDB" stroke-miterlimit="10" x1="288" y1="0" x2="288" y2="512" id="svg_24"/>
				<line fill="none" stroke="#A9CCDB" stroke-miterlimit="10" x1="256" y1="0" x2="256" y2="512" id="svg_25"/>
				<line fill="none" stroke="#A9CCDB" stroke-miterlimit="10" x1="224" y1="0" x2="224" y2="512" id="svg_26"/>
				<line fill="none" stroke="#A9CCDB" stroke-miterlimit="10" x1="192" y1="0" x2="192" y2="512" id="svg_27"/>
				<line fill="none" stroke="#A9CCDB" stroke-miterlimit="10" x1="160" y1="0" x2="160" y2="512" id="svg_28"/>
				<line fill="none" stroke="#A9CCDB" stroke-miterlimit="10" x1="128" y1="0" x2="128" y2="512" id="svg_29"/>
				<line fill="none" stroke="#A9CCDB" stroke-miterlimit="10" x1="96" y1="0" x2="96" y2="512" id="svg_30"/>
				<line fill="none" stroke="#A9CCDB" stroke-miterlimit="10" x1="64" y1="0" x2="64" y2="512" id="svg_31"/>
				<line fill="none" stroke="#A9CCDB" stroke-miterlimit="10" x1="32" y1="0" x2="32" y2="512" id="svg_32"/>
			</g>
		</g>
	</g>
</g><path fill-rule="evenodd" clip-rule="evenodd" fill="red" d="M400,160c-5.312,0-10.562,0.375-15.792,1.125  C354.334,120.417,307.188,96,256,96s-98.312,24.417-128.208,65.125C122.562,160.375,117.312,160,112,160C50.25,160,0,210.25,0,272  c0,61.75,50.25,112,112,112c13.688,0,27.084-2.5,39.709-7.333C180.666,401.917,217.5,416,256,416  c38.542,0,75.333-14.083,104.291-39.333C372.916,381.5,386.312,384,400,384c61.75,0,112-50.25,112-112  C512,210.25,461.75,160,400,160z M400,352c-17.125,0-32.916-5.5-45.938-14.667C330.584,365.624,295.624,384,256,384  c-39.625,0-74.584-18.376-98.062-46.667C144.938,346.5,129.125,352,112,352c-44.188,0-80-35.812-80-80s35.812-80,80-80  c10.812,0,21.062,2.208,30.438,6.083C163.667,156.667,206.291,128,256,128s92.334,28.667,113.541,70.083  C378.938,194.208,389.209,192,400,192c44.188,0,80,35.812,80,80S444.188,352,400,352z" id="svg_33"/><polyline fill="none" stroke="#000000" stroke-dashoffset="" fill-rule="nonzero" marker-start="" marker-mid="" marker-end="" id="svg_34" points="243.06731505977248,257.285325245331 242.59338138692053,257.285325245331 242.11944771406857,257.285325245331 241.64551404121661,257.285325245331 240.6976466955127,257.75925891818304 239.7497793498088,258.23319259103494 238.32797833125292,258.23319259103494 236.90617731269705,258.7071262638869 235.48437629414124,259.6549936095908 233.58864160273342,260.6028609552947 233.11470792988146,260.6028609552947 232.6407742570295,261.0767946281467 232.16684058417755,261.5507283009986 231.6929069113256,261.5507283009986 231.6929069113256,262.0246619738506 231.6929069113256,262.4985956467025 231.6929069113256,263.4464629924064 231.21897323847364,264.8682640109623 231.21897323847364,266.29006502951813 230.74503956562168,268.18579972092596 230.74503956562168,270.0815344123338 230.74503956562168,271.9772691037416 230.74503956562168,273.87300379514943 231.21897323847364,276.24267215940915 231.6929069113256,278.138406850817 232.6407742570295,279.56020786937285 233.11470792988146,281.4559425607806 233.58864160273342,282.4038099064845 234.06257527558537,282.87774357933654 234.06257527558537,283.35167725218844 235.0104426212893,284.29954459789235 235.0104426212893,284.29954459789235 235.48437629414124,284.29954459789235 235.48437629414124,284.29954459789235 235.95830996699314,284.29954459789235 236.4322436398451,284.29954459789235 236.90617731269705,284.29954459789235 237.85404465840097,284.29954459789235 238.80191200410488,284.29954459789235 240.22371302266075,284.29954459789235 241.64551404121661,284.29954459789235 242.59338138692053,284.29954459789235 243.54124873262444,284.29954459789235 244.48911607832838,284.29954459789235 245.91091709688416,283.82561092504045 246.38485076973612,283.82561092504045 246.85878444258807,283.35167725218844 247.33271811544003,283.35167725218844 247.80665178829202,283.35167725218844 248.28058546114397,282.87774357933654 248.75451913399587,282.87774357933654 248.75451913399587,282.4038099064845 248.75451913399587,281.9298762336326 249.22845280684783,281.9298762336326 249.22845280684783,281.9298762336326 249.22845280684783,281.4559425607806 249.22845280684783,281.4559425607806 249.22845280684783,280.9820088879287 249.22845280684783,280.0341415422248 248.75451913399587,279.0862741965209 248.28058546114397,277.19053950511307 248.28058546114397,273.87300379514943 247.33271811544003,269.13366706662987 246.85878444258807,266.76399870237015 246.38485076973612,264.3943303381103 246.38485076973612,262.9725293195545 246.38485076973612,261.5507283009986 246.38485076973612,260.6028609552947 246.38485076973612,259.6549936095908 246.38485076973612,259.18105993673885 245.91091709688416,258.7071262638869 245.91091709688416,257.75925891818304 245.91091709688416,257.285325245331 245.91091709688416,256.8113915724791 245.91091709688416,255.8635242267752 245.91091709688416,254.44172320821932 245.91091709688416,253.49385586251546 245.91091709688416,252.54598851681152 245.91091709688416,251.12418749825562 245.91091709688416,250.17632015255177 245.91091709688416,249.7023864796998 245.91091709688416,248.75451913399587 245.91091709688416,248.28058546114397 245.91091709688416,247.80665178829202 245.91091709688416,246.85878444258807 245.91091709688416,246.85878444258807 245.91091709688416,245.91091709688416 245.91091709688416,245.91091709688416 245.91091709688416,245.43698342403218 245.91091709688416,245.91091709688416 245.91091709688416,246.85878444258807 245.91091709688416,247.80665178829202 245.91091709688416,248.75451913399587 245.91091709688416,249.22845280684783 245.91091709688416,250.17632015255177 245.91091709688416,251.12418749825562 246.38485076973612,252.07205484395956 246.38485076973612,252.54598851681152 246.38485076973612,253.01992218966348 246.38485076973612,253.96778953536736 246.38485076973612,254.44172320821932 246.85878444258807,254.91565688107127 246.85878444258807,255.8635242267752 246.85878444258807,257.285325245331 247.33271811544003,259.18105993673885 248.28058546114397,261.0767946281467 248.75451913399587,263.4464629924064 249.22845280684783,265.3421976838142 249.7023864796998,266.76399870237015 249.7023864796998,268.18579972092596 250.17632015255177,269.6076007394818 250.65025382540372,270.55546808518574 251.12418749825568,272.4512027765935 251.12418749825568,272.9251364494455 251.59812117110766,273.87300379514943 251.59812117110766,274.34693746800133 252.07205484395962,275.29480481370524 252.07205484395962,276.24267215940915 252.54598851681152,277.19053950511307 253.01992218966348,277.664473177965 253.01992218966348,278.61234052366893 253.4938558625154,279.0862741965209 254.44172320821932,279.56020786937285 254.44172320821932,280.5080752150767 255.38959055392326,280.9820088879287 255.8635242267752,281.4559425607806 256.3374578996271,281.4559425607806 256.3374578996271,281.4559425607806 256.8113915724791,281.4559425607806 257.75925891818304,281.4559425607806 258.23319259103494,281.4559425607806 259.18105993673885,281.4559425607806 260.12892728244276,281.4559425607806 260.6028609552948,281.4559425607806 261.5507283009987,281.4559425607806 262.4985956467025,281.4559425607806 263.9203966652584,281.4559425607806 265.3421976838142,281.4559425607806 266.76399870237015,281.4559425607806 268.18579972092596,281.4559425607806 269.6076007394819,281.4559425607806 271.5033354308896,281.4559425607806 272.9251364494455,281.4559425607806 274.82087114085334,281.4559425607806 276.71660583226117,281.4559425607806 278.138406850817,281.4559425607806 279.5602078693729,281.4559425607806 280.9820088879287,281.4559425607806 282.4038099064845,281.4559425607806 282.87774357933654,281.4559425607806 283.82561092504045,281.4559425607806 284.29954459789235,281.4559425607806 284.77347827074436,281.4559425607806 284.77347827074436,281.4559425607806 285.7213456164483,281.4559425607806 285.7213456164483,281.4559425607806 286.6692129621522,281.4559425607806 286.1952792893002,281.4559425607806 " style="color: rgb(0, 0, 0);"/><path fill="none" fill-opacity="1" stroke="#000000" stroke-opacity="1" stroke-width="13" stroke-dasharray="none" stroke-linejoin="miter" stroke-linecap="butt" stroke-dashoffset="" fill-rule="nonzero" opacity="1" marker-start="" marker-mid="" marker-end="" d="M254.44172320821932,253.01992218966348L252.07205484395956,252.54598851681152" id="svg_35"/><polyline fill="none" stroke="#000000" stroke-width="13" stroke-dashoffset="" fill-rule="nonzero" marker-start="" marker-mid="" marker-end="" id="svg_37" points="260.12892728244276,252.54598851681152 260.12892728244276,252.54598851681152 259.1810599367389,252.54598851681152 258.70712626388695,252.07205484395956 258.70712626388695,252.07205484395956 258.233192591035,252.07205484395956 257.75925891818304,251.5981211711076 257.2853252453311,251.5981211711076 256.8113915724791,251.5981211711076 255.8635242267752,251.5981211711076 253.96778953536742,251.5981211711076 252.07205484395956,251.5981211711076 250.65025382540367,251.12418749825562 248.75451913399593,251.12418749825562 246.85878444258813,251.12418749825562 245.43698342403223,251.12418749825562 244.01518240547637,251.12418749825562 241.1715803683647,250.65025382540372 238.8019120041049,250.65025382540372 237.38011098554904,250.65025382540372 235.4843762941412,250.65025382540372 234.06257527558535,250.65025382540372 233.11470792988143,250.65025382540372 232.64077425702953,250.65025382540372 232.16684058417758,250.65025382540372 231.69290691132562,250.65025382540372 231.69290691132562,251.12418749825562 231.21897323847367,251.12418749825562 230.7450395656217,251.12418749825562 230.7450395656217,251.5981211711076 230.27110589276975,251.5981211711076 230.27110589276975,252.54598851681152 229.7971722199178,253.49385586251546 228.84930487421389,254.44172320821932 228.84930487421389,255.38959055392326 228.37537120136193,256.3374578996271 227.90143752850997,257.759258918183 227.90143752850997,258.7071262638869 227.42750385565802,259.6549936095908 226.95357018280606,261.0767946281467 226.95357018280606,262.49859564670254 226.95357018280606,263.44646299240645 226.95357018280606,264.86826401096226 226.4796365099541,266.29006502951813 226.4796365099541,267.711866048074 226.4796365099541,269.13366706662987 226.4796365099541,270.55546808518574 226.00570283710215,273.3990701222974 226.00570283710215,274.8208711408533 226.00570283710215,275.7687384865572 226.00570283710215,277.19053950511307 226.00570283710215,278.138406850817 226.00570283710215,279.0862741965209 226.00570283710215,280.50807521507676 226.00570283710215,281.45594256078067 226.00570283710215,282.4038099064845 226.00570283710215,283.8256109250404 226.00570283710215,284.7734782707443 226.00570283710215,285.7213456164482 226.4796365099541,286.66921296215213 226.95357018280606,287.61708030785604 227.42750385565802,288.091013980708 227.42750385565802,289.0388813264119 227.90143752850997,289.0388813264119 228.37537120136193,289.9867486721158 229.7971722199178,291.40854969067163 230.7450395656217,291.40854969067163 231.21897323847367,292.35641703637555 232.16684058417758,292.8303507092275 232.64077425702953,292.8303507092275 233.11470792988143,293.30428438207946 233.5886416027334,293.30428438207946 234.5365089484373,293.30428438207946 234.5365089484373,293.30428438207946 235.01044262128926,293.30428438207946 235.4843762941412,293.30428438207946 235.95830996699317,293.30428438207946 236.43224363984513,293.30428438207946 236.43224363984513,293.30428438207946 236.90617731269708,293.30428438207946 237.38011098554904,293.30428438207946 237.854044658401,293.30428438207946 238.32797833125295,293.30428438207946 238.32797833125295,293.30428438207946 238.8019120041049,293.30428438207946 239.27584567695686,293.30428438207946 239.74977934980882,292.8303507092275 240.22371302266077,292.8303507092275 240.22371302266077,292.35641703637555 240.69764669551273,292.35641703637555 240.69764669551273,291.8824833635236 241.64551404121664,291.40854969067163 242.11944771406854,290.4606823449678 243.06731505977248,289.9867486721158 243.06731505977248,289.0388813264119 244.01518240547637,288.091013980708 244.01518240547637,287.61708030785604 244.48911607832832,286.66921296215213 245.43698342403223,285.7213456164482 245.43698342403223,284.7734782707443 245.9109170968842,283.8256109250404 246.38485076973618,282.8777435793365 246.38485076973618,282.4038099064845 246.85878444258813,281.45594256078067 247.33271811544003,280.50807521507676 247.80665178829202,279.56020786937285 247.80665178829202,277.664473177965 248.28058546114397,276.7166058322611 248.75451913399593,275.7687384865572 248.75451913399593,275.29480481370524 248.75451913399593,274.34693746800133 248.75451913399593,273.8730037951494 248.75451913399593,273.3990701222974 248.75451913399593,273.3990701222974 248.75451913399593,272.92513644944546 248.75451913399593,272.45120277659356 248.75451913399593,271.50333543088965 249.22845280684788,271.0294017580377 249.22845280684788,270.55546808518574 249.70238647969984,269.6076007394818 249.70238647969984,268.18579972092596 249.70238647969984,267.23793237522204 250.17632015255182,266.7639987023701 250.17632015255182,266.29006502951813 250.17632015255182,265.3421976838142 250.17632015255182,264.86826401096226 250.17632015255182,264.3943303381103 250.65025382540367,263.44646299240645 251.12418749825562,262.0246619738506 251.12418749825562,261.0767946281467 251.5981211711076,260.12892728244276 252.07205484395956,259.18105993673885 252.54598851681152,258.23319259103494 252.54598851681152,257.285325245331 253.01992218966348,256.3374578996271 253.01992218966348,255.8635242267752 253.01992218966348,255.38959055392326 253.49385586251546,254.91565688107127 253.49385586251546,254.44172320821932 253.49385586251546,253.96778953536742 253.96778953536742,253.49385586251546 253.96778953536742,252.54598851681152 253.96778953536742,252.07205484395956 253.96778953536742,251.12418749825562 253.96778953536742,250.65025382540372 253.96778953536742,250.65025382540372 253.96778953536742,251.12418749825562 253.96778953536742,251.5981211711076 253.96778953536742,253.01992218966348 253.96778953536742,254.44172320821932 253.96778953536742,255.8635242267752 253.96778953536742,257.759258918183 253.96778953536742,259.6549936095908 253.49385586251546,262.0246619738506 253.49385586251546,264.3943303381103 253.49385586251546,266.29006502951813 253.49385586251546,268.18579972092596 253.49385586251546,270.0815344123338 253.49385586251546,271.9772691037416 253.96778953536742,273.8730037951494 253.96778953536742,274.8208711408533 253.96778953536742,275.7687384865572 253.96778953536742,276.7166058322611 253.96778953536742,277.19053950511307 253.96778953536742,278.138406850817 253.96778953536742,278.61234052366893 254.44172320821932,279.0862741965209 254.91565688107127,280.0341415422248 254.91565688107127,280.50807521507676 254.91565688107127,280.9820088879287 254.91565688107127,281.45594256078067 254.91565688107127,282.8777435793365 254.91565688107127,283.35167725218844 254.91565688107127,284.29954459789235 255.38959055392326,284.7734782707443 255.38959055392326,285.24741194359626 255.8635242267752,286.66921296215213 255.8635242267752,287.61708030785604 255.8635242267752,288.091013980708 256.33745789962717,288.56494765355995 256.8113915724791,289.0388813264119 256.8113915724791,289.51281499926387 257.2853252453311,289.51281499926387 257.2853252453311,289.9867486721158 257.75925891818304,289.9867486721158 258.70712626388695,289.9867486721158 258.70712626388695,289.9867486721158 259.1810599367389,289.9867486721158 259.6549936095908,289.9867486721158 260.12892728244276,289.9867486721158 260.6028609552947,289.9867486721158 261.0767946281467,289.9867486721158 261.5507283009986,290.4606823449678 263.44646299240645,290.4606823449678 263.9203966652584,290.4606823449678 264.8682640109623,290.4606823449678 265.81613135666623,290.4606823449678 267.2379323752221,290.4606823449678 268.185799720926,290.4606823449678 269.6076007394818,290.4606823449678 271.0294017580377,290.4606823449678 272.9251364494455,290.4606823449678 273.87300379514943,290.4606823449678 274.82087114085334,290.4606823449678 275.76873848655725,290.4606823449678 276.71660583226117,290.4606823449678 277.664473177965,290.4606823449678 278.61234052366893,290.4606823449678 279.56020786937285,290.4606823449678 280.0341415422248,289.9867486721158 281.45594256078067,289.51281499926387 281.9298762336326,289.51281499926387 282.4038099064846,289.51281499926387 282.87774357933654,289.51281499926387 283.3516772521885,289.0388813264119 283.82561092504045,289.0388813264119 284.77347827074436,288.56494765355995 285.2474119435963,288.56494765355995 285.7213456164483,288.56494765355995 286.66921296215213,288.091013980708 287.61708030785604,287.61708030785604 288.56494765355995,287.1431466350041 289.51281499926387,287.1431466350041 289.9867486721158,286.66921296215213 290.4606823449678,286.66921296215213 290.93461601781974,286.66921296215213 290.93461601781974,287.1431466350041 " style="color: rgb(0, 0, 0);"/></g></svg>