<?xml version="1.0" encoding="utf-8"?>
<!-- Generator: Adobe Illustrator 19.1.0, SVG Export Plug-In . SVG Version: 6.00 Build 0)  -->
<svg version="1.1" xmlns="http://www.w3.org/2000/svg" xmlns:xlink="http://www.w3.org/1999/xlink" x="0px" y="0px"
	 viewBox="0 0 151.2 80" style="enable-background:new 0 0 15 8; background-color: black;" xml:space="preserve">
<metadata><?xpacket begin="﻿" id="W5M0MpCehiHzreSzNTczkc9d"?>
<x:xmpmeta xmlns:x="adobe:ns:meta/" x:xmptk="Adobe XMP Core 5.6-c067 79.157747, 2015/03/30-23:40:42        ">
   <rdf:RDF xmlns:rdf="http://www.w3.org/1999/02/22-rdf-syntax-ns#">
      <rdf:Description rdf:about=""/>
   </rdf:RDF>
</x:xmpmeta>
                                                                                                    
                                                                                                    
                                                                                                    
                                                                                                    
                                                                                                    
                                                                                                    
                                                                                                    
                                                                                                    
                                                                                                    
                                                                                                    
                                                                                                    
                                                                                                    
                                                                                                    
                                                                                                    
                                                                                                    
                                                                                                    
                                                                                                    
                                                                                                    
                                                                                                    
                                                                                                    
                           
<?xpacket end="w"?></metadata>
<style type="text/css">
	.st0{fill:#005CA9;}
	fill:rgb(0,0,255)
</style>
<g id="Ebene_1">
	<g>
		<path class="st0" d="M62.3,27.5L50.2,48.7h-8.1l0-9.7l-7.1,0v9.7h-2v-9.7h-8l5.7,9.7h-7.3l-5.8-10.4c0.2,0.1,2.4-0.5,2.4-2.6
			c0-2.4-2.3-2.7-2.4-2.7c-0.1,0-1.4,0-1.4,0l0,15.8l-6.7,0l0-21.2c0,0,10.2,0,10.1,0c4,0.1,6.5,2.7,6.5,6c0,2-1.2,3.4-1.2,3.4H33
			v-9.4h2v9.4h7.1v-9.4h6.7v13.9c0,0,0.4-1.8,1.5-3.8l5-10.1H62.3L62.3,27.5z"/>
	</g>
</g>
<g id="Ebene_2">
	<g>
		<path class="st0" d="M73.1,38.7c-0.7-0.4-1.6-0.7-2.4-0.7c-2.7,0-4.6,2-4.6,4.6c0,2.8,2,4.6,4.5,4.6c0.9,0,2-0.2,2.6-0.6l0.1,1.6
			c-0.9,0.4-2,0.4-2.7,0.4c-3.8,0-6.3-2.4-6.3-6.2c0-3.7,2.7-6.1,6.3-6.1c0.9,0,1.8,0.1,2.7,0.5L73.1,38.7z"/>
		<path class="st0" d="M80.6,36.6c3.6,0,5.7,2.6,5.7,6.1c0,3.6-2.1,6.1-5.7,6.1c-3.6,0-5.7-2.5-5.7-6.1C74.9,39.2,77,36.6,80.6,36.6
			z M80.6,47.4c2.7,0,3.9-2.3,3.9-4.6c0-2.4-1.3-4.7-3.9-4.6c-2.6,0-3.9,2.2-3.9,4.6C76.7,45.1,77.9,47.4,80.6,47.4z"/>
		<path class="st0" d="M88.9,36.8h2.3l5.2,9.6h0v-9.6h1.7v11.9H96l-5.4-9.8h0v9.8h-1.7V36.8z"/>
		<path class="st0" d="M101.4,36.8h2.3l5.2,9.6h0v-9.6h1.7v11.9h-2.2l-5.4-9.8h0v9.8h-1.7V36.8z"/>
		<path class="st0" d="M114.1,36.8h6.6v1.5h-4.9v3.5h4.5v1.5h-4.5v3.9h4.9v1.5h-6.6V36.8z"/>
		<path class="st0" d="M131.9,38.7c-0.7-0.4-1.6-0.7-2.4-0.7c-2.7,0-4.6,2-4.6,4.6c0,2.8,2,4.6,4.5,4.6c0.9,0,2-0.2,2.6-0.6l0.1,1.6
			c-0.9,0.4-2,0.4-2.7,0.4c-3.8,0-6.3-2.4-6.3-6.2c0-3.7,2.7-6.1,6.3-6.1c0.9,0,1.8,0.1,2.7,0.5L131.9,38.7z"/>
		<path class="st0" d="M136.7,38.3H133v-1.5h9.1v1.5h-3.7v10.4h-1.7V38.3z"/>
	</g>
</g>
</svg>
